<mxfile host="Electron" modified="2023-08-15T19:58:36.683Z" agent="Mozilla/5.0 (Windows NT 10.0; Win64; x64) AppleWebKit/537.36 (KHTML, like Gecko) draw.io/21.6.8 Chrome/114.0.5735.289 Electron/25.5.0 Safari/537.36" etag="vHzEJejYDUsdsrW4NVTK" version="21.6.8" type="device" pages="2">
  <diagram name="PÃ¡gina-1" id="GQbh5GMuBPTJf_VO34jZ">
    <mxGraphModel dx="2930" dy="1775" grid="1" gridSize="10" guides="1" tooltips="1" connect="1" arrows="1" fold="1" page="1" pageScale="1" pageWidth="827" pageHeight="1169" math="0" shadow="0">
      <root>
        <mxCell id="0" />
        <mxCell id="1" parent="0" />
        <mxCell id="QcT9AZfzLPAWue5aMM_R-48" style="edgeStyle=orthogonalEdgeStyle;rounded=0;orthogonalLoop=1;jettySize=auto;html=1;entryX=0.5;entryY=0;entryDx=0;entryDy=0;" parent="1" source="QcT9AZfzLPAWue5aMM_R-1" target="QcT9AZfzLPAWue5aMM_R-44" edge="1">
          <mxGeometry relative="1" as="geometry" />
        </mxCell>
        <mxCell id="QcT9AZfzLPAWue5aMM_R-1" value="POST&lt;br&gt;&lt;b&gt;/publish/event&lt;/b&gt;" style="shape=process;whiteSpace=wrap;html=1;backgroundOutline=1;" parent="1" vertex="1">
          <mxGeometry x="-807.5" y="-200" width="175" height="40" as="geometry" />
        </mxCell>
        <mxCell id="QcT9AZfzLPAWue5aMM_R-225" style="edgeStyle=orthogonalEdgeStyle;rounded=0;orthogonalLoop=1;jettySize=auto;html=1;" parent="1" source="QcT9AZfzLPAWue5aMM_R-10" target="QcT9AZfzLPAWue5aMM_R-126" edge="1">
          <mxGeometry relative="1" as="geometry">
            <mxPoint x="-240" y="720" as="targetPoint" />
          </mxGeometry>
        </mxCell>
        <mxCell id="QcT9AZfzLPAWue5aMM_R-10" value="issuance" style="whiteSpace=wrap;html=1;" parent="1" vertex="1">
          <mxGeometry x="-300" y="558" width="120" height="42" as="geometry" />
        </mxCell>
        <mxCell id="QcT9AZfzLPAWue5aMM_R-117" style="edgeStyle=orthogonalEdgeStyle;rounded=0;orthogonalLoop=1;jettySize=auto;html=1;entryX=0.5;entryY=0;entryDx=0;entryDy=0;" parent="1" source="QcT9AZfzLPAWue5aMM_R-12" target="QcT9AZfzLPAWue5aMM_R-229" edge="1">
          <mxGeometry relative="1" as="geometry">
            <mxPoint x="-720" y="1029.5" as="targetPoint" />
            <Array as="points">
              <mxPoint x="-880" y="650" />
              <mxPoint x="-720" y="650" />
            </Array>
          </mxGeometry>
        </mxCell>
        <mxCell id="QcT9AZfzLPAWue5aMM_R-12" value="violations" style="whiteSpace=wrap;html=1;" parent="1" vertex="1">
          <mxGeometry x="-940" y="560" width="120" height="42" as="geometry" />
        </mxCell>
        <mxCell id="QcT9AZfzLPAWue5aMM_R-19" value="" style="edgeStyle=orthogonalEdgeStyle;rounded=0;orthogonalLoop=1;jettySize=auto;html=1;" parent="1" source="QcT9AZfzLPAWue5aMM_R-14" target="QcT9AZfzLPAWue5aMM_R-16" edge="1">
          <mxGeometry relative="1" as="geometry" />
        </mxCell>
        <mxCell id="QcT9AZfzLPAWue5aMM_R-14" value="load validation schemas" style="rounded=1;whiteSpace=wrap;html=1;" parent="1" vertex="1">
          <mxGeometry x="-805" y="220" width="170" height="40" as="geometry" />
        </mxCell>
        <mxCell id="QcT9AZfzLPAWue5aMM_R-78" style="edgeStyle=orthogonalEdgeStyle;rounded=0;orthogonalLoop=1;jettySize=auto;html=1;" parent="1" source="QcT9AZfzLPAWue5aMM_R-16" target="QcT9AZfzLPAWue5aMM_R-67" edge="1">
          <mxGeometry relative="1" as="geometry" />
        </mxCell>
        <mxCell id="QcT9AZfzLPAWue5aMM_R-16" value="validate message" style="rounded=1;whiteSpace=wrap;html=1;" parent="1" vertex="1">
          <mxGeometry x="-805" y="310" width="170" height="40" as="geometry" />
        </mxCell>
        <mxCell id="QcT9AZfzLPAWue5aMM_R-77" style="edgeStyle=orthogonalEdgeStyle;rounded=0;orthogonalLoop=1;jettySize=auto;html=1;" parent="1" source="QcT9AZfzLPAWue5aMM_R-44" target="QcT9AZfzLPAWue5aMM_R-14" edge="1">
          <mxGeometry relative="1" as="geometry" />
        </mxCell>
        <mxCell id="QcT9AZfzLPAWue5aMM_R-44" value="args" style="swimlane;fontStyle=0;childLayout=stackLayout;horizontal=1;startSize=20;horizontalStack=0;resizeParent=1;resizeParentMax=0;resizeLast=0;collapsible=1;marginBottom=0;whiteSpace=wrap;html=1;" parent="1" vertex="1">
          <mxGeometry x="-850" y="-100" width="260" height="270" as="geometry">
            <mxRectangle x="-840" y="-10" width="240" height="20" as="alternateBounds" />
          </mxGeometry>
        </mxCell>
        <mxCell id="QcT9AZfzLPAWue5aMM_R-49" value="message" style="swimlane;fontStyle=0;childLayout=stackLayout;horizontal=1;startSize=30;horizontalStack=0;resizeParent=1;resizeParentMax=0;resizeLast=0;collapsible=1;marginBottom=0;whiteSpace=wrap;html=1;" parent="QcT9AZfzLPAWue5aMM_R-44" vertex="1">
          <mxGeometry y="20" width="260" height="50" as="geometry">
            <mxRectangle y="20" width="260" height="20" as="alternateBounds" />
          </mxGeometry>
        </mxCell>
        <mxCell id="QcT9AZfzLPAWue5aMM_R-50" value="event_type" style="text;strokeColor=none;fillColor=none;align=left;verticalAlign=middle;spacingLeft=4;spacingRight=4;overflow=hidden;points=[[0,0.5],[1,0.5]];portConstraint=eastwest;rotatable=0;whiteSpace=wrap;html=1;" parent="QcT9AZfzLPAWue5aMM_R-49" vertex="1">
          <mxGeometry y="30" width="260" height="20" as="geometry" />
        </mxCell>
        <mxCell id="QcT9AZfzLPAWue5aMM_R-53" value="schemas" style="swimlane;fontStyle=0;childLayout=stackLayout;horizontal=1;startSize=30;horizontalStack=0;resizeParent=1;resizeParentMax=0;resizeLast=0;collapsible=1;marginBottom=0;whiteSpace=wrap;html=1;" parent="QcT9AZfzLPAWue5aMM_R-44" vertex="1">
          <mxGeometry y="70" width="260" height="70" as="geometry">
            <mxRectangle y="70" width="260" height="20" as="alternateBounds" />
          </mxGeometry>
        </mxCell>
        <mxCell id="QcT9AZfzLPAWue5aMM_R-55" value="cerberus_rules" style="text;strokeColor=none;fillColor=none;align=left;verticalAlign=middle;spacingLeft=4;spacingRight=4;overflow=hidden;points=[[0,0.5],[1,0.5]];portConstraint=eastwest;rotatable=0;whiteSpace=wrap;html=1;" parent="QcT9AZfzLPAWue5aMM_R-53" vertex="1">
          <mxGeometry y="30" width="260" height="20" as="geometry" />
        </mxCell>
        <mxCell id="QcT9AZfzLPAWue5aMM_R-54" value="allow_unknown" style="text;strokeColor=none;fillColor=none;align=left;verticalAlign=middle;spacingLeft=4;spacingRight=4;overflow=hidden;points=[[0,0.5],[1,0.5]];portConstraint=eastwest;rotatable=0;whiteSpace=wrap;html=1;" parent="QcT9AZfzLPAWue5aMM_R-53" vertex="1">
          <mxGeometry y="50" width="260" height="20" as="geometry" />
        </mxCell>
        <mxCell id="QcT9AZfzLPAWue5aMM_R-51" value="config" style="swimlane;fontStyle=0;childLayout=stackLayout;horizontal=1;startSize=30;horizontalStack=0;resizeParent=1;resizeParentMax=0;resizeLast=0;collapsible=1;marginBottom=0;whiteSpace=wrap;html=1;" parent="QcT9AZfzLPAWue5aMM_R-44" vertex="1">
          <mxGeometry y="140" width="260" height="130" as="geometry">
            <mxRectangle y="140" width="260" height="20" as="alternateBounds" />
          </mxGeometry>
        </mxCell>
        <mxCell id="QcT9AZfzLPAWue5aMM_R-56" value="odbc_driver" style="text;strokeColor=none;fillColor=none;align=left;verticalAlign=middle;spacingLeft=4;spacingRight=4;overflow=hidden;points=[[0,0.5],[1,0.5]];portConstraint=eastwest;rotatable=0;whiteSpace=wrap;html=1;" parent="QcT9AZfzLPAWue5aMM_R-51" vertex="1">
          <mxGeometry y="30" width="260" height="20" as="geometry" />
        </mxCell>
        <mxCell id="QcT9AZfzLPAWue5aMM_R-59" value="db_host" style="text;strokeColor=none;fillColor=none;align=left;verticalAlign=middle;spacingLeft=4;spacingRight=4;overflow=hidden;points=[[0,0.5],[1,0.5]];portConstraint=eastwest;rotatable=0;whiteSpace=wrap;html=1;" parent="QcT9AZfzLPAWue5aMM_R-51" vertex="1">
          <mxGeometry y="50" width="260" height="20" as="geometry" />
        </mxCell>
        <mxCell id="QcT9AZfzLPAWue5aMM_R-57" value="db_name" style="text;strokeColor=none;fillColor=none;align=left;verticalAlign=middle;spacingLeft=4;spacingRight=4;overflow=hidden;points=[[0,0.5],[1,0.5]];portConstraint=eastwest;rotatable=0;whiteSpace=wrap;html=1;" parent="QcT9AZfzLPAWue5aMM_R-51" vertex="1">
          <mxGeometry y="70" width="260" height="20" as="geometry" />
        </mxCell>
        <mxCell id="QcT9AZfzLPAWue5aMM_R-58" value="db_username" style="text;strokeColor=none;fillColor=none;align=left;verticalAlign=middle;spacingLeft=4;spacingRight=4;overflow=hidden;points=[[0,0.5],[1,0.5]];portConstraint=eastwest;rotatable=0;whiteSpace=wrap;html=1;" parent="QcT9AZfzLPAWue5aMM_R-51" vertex="1">
          <mxGeometry y="90" width="260" height="20" as="geometry" />
        </mxCell>
        <mxCell id="QcT9AZfzLPAWue5aMM_R-52" value="db_password" style="text;strokeColor=none;fillColor=none;align=left;verticalAlign=middle;spacingLeft=4;spacingRight=4;overflow=hidden;points=[[0,0.5],[1,0.5]];portConstraint=eastwest;rotatable=0;whiteSpace=wrap;html=1;" parent="QcT9AZfzLPAWue5aMM_R-51" vertex="1">
          <mxGeometry y="110" width="260" height="20" as="geometry" />
        </mxCell>
        <mxCell id="QcT9AZfzLPAWue5aMM_R-82" style="edgeStyle=orthogonalEdgeStyle;rounded=0;orthogonalLoop=1;jettySize=auto;html=1;entryX=0.5;entryY=0;entryDx=0;entryDy=0;" parent="1" source="QcT9AZfzLPAWue5aMM_R-67" target="QcT9AZfzLPAWue5aMM_R-10" edge="1">
          <mxGeometry relative="1" as="geometry">
            <Array as="points">
              <mxPoint x="-240" y="435" />
            </Array>
          </mxGeometry>
        </mxCell>
        <mxCell id="QcT9AZfzLPAWue5aMM_R-109" style="edgeStyle=orthogonalEdgeStyle;rounded=0;orthogonalLoop=1;jettySize=auto;html=1;" parent="1" source="QcT9AZfzLPAWue5aMM_R-67" target="QcT9AZfzLPAWue5aMM_R-86" edge="1">
          <mxGeometry relative="1" as="geometry" />
        </mxCell>
        <mxCell id="QcT9AZfzLPAWue5aMM_R-110" style="edgeStyle=orthogonalEdgeStyle;rounded=0;orthogonalLoop=1;jettySize=auto;html=1;" parent="1" source="QcT9AZfzLPAWue5aMM_R-67" target="QcT9AZfzLPAWue5aMM_R-12" edge="1">
          <mxGeometry relative="1" as="geometry">
            <Array as="points">
              <mxPoint x="-720" y="520" />
              <mxPoint x="-880" y="520" />
            </Array>
          </mxGeometry>
        </mxCell>
        <mxCell id="QcT9AZfzLPAWue5aMM_R-111" style="edgeStyle=orthogonalEdgeStyle;rounded=0;orthogonalLoop=1;jettySize=auto;html=1;entryX=0.5;entryY=0;entryDx=0;entryDy=0;" parent="1" source="QcT9AZfzLPAWue5aMM_R-67" target="QcT9AZfzLPAWue5aMM_R-84" edge="1">
          <mxGeometry relative="1" as="geometry">
            <Array as="points">
              <mxPoint x="-720" y="520" />
              <mxPoint x="-1040" y="520" />
            </Array>
          </mxGeometry>
        </mxCell>
        <mxCell id="QcT9AZfzLPAWue5aMM_R-112" style="edgeStyle=orthogonalEdgeStyle;rounded=0;orthogonalLoop=1;jettySize=auto;html=1;" parent="1" source="QcT9AZfzLPAWue5aMM_R-67" target="QcT9AZfzLPAWue5aMM_R-88" edge="1">
          <mxGeometry relative="1" as="geometry">
            <Array as="points">
              <mxPoint x="-720" y="520" />
              <mxPoint x="-560" y="520" />
            </Array>
          </mxGeometry>
        </mxCell>
        <mxCell id="QcT9AZfzLPAWue5aMM_R-113" style="edgeStyle=orthogonalEdgeStyle;rounded=0;orthogonalLoop=1;jettySize=auto;html=1;" parent="1" source="QcT9AZfzLPAWue5aMM_R-67" target="QcT9AZfzLPAWue5aMM_R-89" edge="1">
          <mxGeometry relative="1" as="geometry">
            <Array as="points">
              <mxPoint x="-720" y="520" />
              <mxPoint x="-400" y="520" />
            </Array>
          </mxGeometry>
        </mxCell>
        <mxCell id="QcT9AZfzLPAWue5aMM_R-67" value="is the&amp;nbsp; &lt;br&gt;issuance &lt;br&gt;event ?" style="rhombus;whiteSpace=wrap;html=1;" parent="1" vertex="1">
          <mxGeometry x="-780" y="375" width="120" height="120" as="geometry" />
        </mxCell>
        <mxCell id="QcT9AZfzLPAWue5aMM_R-118" style="edgeStyle=orthogonalEdgeStyle;rounded=0;orthogonalLoop=1;jettySize=auto;html=1;" parent="1" source="QcT9AZfzLPAWue5aMM_R-84" target="QcT9AZfzLPAWue5aMM_R-229" edge="1">
          <mxGeometry relative="1" as="geometry">
            <mxPoint x="-720" y="1029.5" as="targetPoint" />
            <Array as="points">
              <mxPoint x="-1040" y="650" />
              <mxPoint x="-720" y="650" />
            </Array>
          </mxGeometry>
        </mxCell>
        <mxCell id="QcT9AZfzLPAWue5aMM_R-84" value="dispute update" style="whiteSpace=wrap;html=1;" parent="1" vertex="1">
          <mxGeometry x="-1100" y="560" width="120" height="42" as="geometry" />
        </mxCell>
        <mxCell id="QcT9AZfzLPAWue5aMM_R-116" style="edgeStyle=orthogonalEdgeStyle;rounded=0;orthogonalLoop=1;jettySize=auto;html=1;entryX=0.5;entryY=0;entryDx=0;entryDy=0;" parent="1" source="QcT9AZfzLPAWue5aMM_R-86" target="QcT9AZfzLPAWue5aMM_R-229" edge="1">
          <mxGeometry relative="1" as="geometry">
            <mxPoint x="-720" y="1029.5" as="targetPoint" />
          </mxGeometry>
        </mxCell>
        <mxCell id="QcT9AZfzLPAWue5aMM_R-86" value="payment" style="whiteSpace=wrap;html=1;" parent="1" vertex="1">
          <mxGeometry x="-780" y="560" width="120" height="42" as="geometry" />
        </mxCell>
        <mxCell id="QcT9AZfzLPAWue5aMM_R-119" style="edgeStyle=orthogonalEdgeStyle;rounded=0;orthogonalLoop=1;jettySize=auto;html=1;" parent="1" source="QcT9AZfzLPAWue5aMM_R-88" target="QcT9AZfzLPAWue5aMM_R-229" edge="1">
          <mxGeometry relative="1" as="geometry">
            <mxPoint x="-720" y="1029.5" as="targetPoint" />
            <Array as="points">
              <mxPoint x="-560" y="650" />
              <mxPoint x="-720" y="650" />
            </Array>
          </mxGeometry>
        </mxCell>
        <mxCell id="QcT9AZfzLPAWue5aMM_R-88" value="dispute" style="whiteSpace=wrap;html=1;" parent="1" vertex="1">
          <mxGeometry x="-620" y="560" width="120" height="42" as="geometry" />
        </mxCell>
        <mxCell id="QcT9AZfzLPAWue5aMM_R-89" value="payment query" style="whiteSpace=wrap;html=1;" parent="1" vertex="1">
          <mxGeometry x="-460" y="560" width="120" height="40" as="geometry" />
        </mxCell>
        <mxCell id="QcT9AZfzLPAWue5aMM_R-179" style="edgeStyle=orthogonalEdgeStyle;rounded=0;orthogonalLoop=1;jettySize=auto;html=1;entryX=0.493;entryY=-0.004;entryDx=0;entryDy=0;entryPerimeter=0;" parent="1" source="QcT9AZfzLPAWue5aMM_R-126" target="QcT9AZfzLPAWue5aMM_R-165" edge="1">
          <mxGeometry relative="1" as="geometry">
            <Array as="points" />
          </mxGeometry>
        </mxCell>
        <mxCell id="QcT9AZfzLPAWue5aMM_R-126" value="get address from message" style="swimlane;fontStyle=0;childLayout=stackLayout;horizontal=1;startSize=20;horizontalStack=0;resizeParent=1;resizeParentMax=0;resizeLast=0;collapsible=1;marginBottom=0;whiteSpace=wrap;html=1;" parent="1" vertex="1">
          <mxGeometry x="-442.75" y="710" width="405.5" height="200" as="geometry">
            <mxRectangle x="-360.5" y="919.5" width="240" height="20" as="alternateBounds" />
          </mxGeometry>
        </mxCell>
        <mxCell id="QcT9AZfzLPAWue5aMM_R-132" value="message" style="swimlane;fontStyle=0;childLayout=stackLayout;horizontal=1;startSize=30;horizontalStack=0;resizeParent=1;resizeParentMax=0;resizeLast=0;collapsible=1;marginBottom=0;whiteSpace=wrap;html=1;" parent="QcT9AZfzLPAWue5aMM_R-126" vertex="1">
          <mxGeometry y="20" width="405.5" height="120" as="geometry">
            <mxRectangle y="20" width="405.5" height="20" as="alternateBounds" />
          </mxGeometry>
        </mxCell>
        <mxCell id="QcT9AZfzLPAWue5aMM_R-138" value="event_type" style="swimlane;fontStyle=0;childLayout=stackLayout;horizontal=1;startSize=30;horizontalStack=0;resizeParent=1;resizeParentMax=0;resizeLast=0;collapsible=1;marginBottom=0;whiteSpace=wrap;html=1;" parent="QcT9AZfzLPAWue5aMM_R-132" vertex="1">
          <mxGeometry y="30" width="405.5" height="90" as="geometry">
            <mxRectangle y="30" width="260" height="20" as="alternateBounds" />
          </mxGeometry>
        </mxCell>
        <mxCell id="QcT9AZfzLPAWue5aMM_R-139" value="violation_highway_desc" style="text;strokeColor=none;fillColor=none;align=left;verticalAlign=middle;spacingLeft=4;spacingRight=4;overflow=hidden;points=[[0,0.5],[1,0.5]];portConstraint=eastwest;rotatable=0;whiteSpace=wrap;html=1;" parent="QcT9AZfzLPAWue5aMM_R-138" vertex="1">
          <mxGeometry y="30" width="405.5" height="20" as="geometry" />
        </mxCell>
        <mxCell id="QcT9AZfzLPAWue5aMM_R-140" value="violation_city_name" style="text;strokeColor=none;fillColor=none;align=left;verticalAlign=middle;spacingLeft=4;spacingRight=4;overflow=hidden;points=[[0,0.5],[1,0.5]];portConstraint=eastwest;rotatable=0;whiteSpace=wrap;html=1;" parent="QcT9AZfzLPAWue5aMM_R-138" vertex="1">
          <mxGeometry y="50" width="405.5" height="20" as="geometry" />
        </mxCell>
        <mxCell id="QcT9AZfzLPAWue5aMM_R-141" value="ticket_number" style="text;strokeColor=none;fillColor=none;align=left;verticalAlign=middle;spacingLeft=4;spacingRight=4;overflow=hidden;points=[[0,0.5],[1,0.5]];portConstraint=eastwest;rotatable=0;whiteSpace=wrap;html=1;" parent="QcT9AZfzLPAWue5aMM_R-138" vertex="1">
          <mxGeometry y="70" width="405.5" height="20" as="geometry" />
        </mxCell>
        <mxCell id="QcT9AZfzLPAWue5aMM_R-145" value="args" style="swimlane;fontStyle=0;childLayout=stackLayout;horizontal=1;startSize=20;horizontalStack=0;resizeParent=1;resizeParentMax=0;resizeLast=0;collapsible=1;marginBottom=0;whiteSpace=wrap;html=1;" parent="QcT9AZfzLPAWue5aMM_R-126" vertex="1">
          <mxGeometry y="140" width="405.5" height="60" as="geometry">
            <mxRectangle y="140" width="260" height="20" as="alternateBounds" />
          </mxGeometry>
        </mxCell>
        <mxCell id="QcT9AZfzLPAWue5aMM_R-152" value="address_raw: event_type[violation_highway_desc, violation_city_name]" style="text;strokeColor=none;fillColor=none;align=left;verticalAlign=middle;spacingLeft=4;spacingRight=4;overflow=hidden;points=[[0,0.5],[1,0.5]];portConstraint=eastwest;rotatable=0;whiteSpace=wrap;html=1;" parent="QcT9AZfzLPAWue5aMM_R-145" vertex="1">
          <mxGeometry y="20" width="405.5" height="20" as="geometry" />
        </mxCell>
        <mxCell id="QcT9AZfzLPAWue5aMM_R-150" value="business_id: event_type[ticket_number]" style="text;strokeColor=none;fillColor=none;align=left;verticalAlign=middle;spacingLeft=4;spacingRight=4;overflow=hidden;points=[[0,0.5],[1,0.5]];portConstraint=eastwest;rotatable=0;whiteSpace=wrap;html=1;" parent="QcT9AZfzLPAWue5aMM_R-145" vertex="1">
          <mxGeometry y="40" width="405.5" height="20" as="geometry" />
        </mxCell>
        <mxCell id="QcT9AZfzLPAWue5aMM_R-156" value="Transform Geocoder response" style="swimlane;fontStyle=0;childLayout=stackLayout;horizontal=1;startSize=20;horizontalStack=0;resizeParent=1;resizeParentMax=0;resizeLast=0;collapsible=1;marginBottom=0;whiteSpace=wrap;html=1;" parent="1" vertex="1">
          <mxGeometry x="-360" y="1230" width="240" height="80" as="geometry">
            <mxRectangle x="-360.5" y="1149" width="240" height="20" as="alternateBounds" />
          </mxGeometry>
        </mxCell>
        <mxCell id="QcT9AZfzLPAWue5aMM_R-237" value="business_id" style="text;strokeColor=none;fillColor=none;align=left;verticalAlign=middle;spacingLeft=4;spacingRight=4;overflow=hidden;points=[[0,0.5],[1,0.5]];portConstraint=eastwest;rotatable=0;whiteSpace=wrap;html=1;" parent="QcT9AZfzLPAWue5aMM_R-156" vertex="1">
          <mxGeometry y="20" width="240" height="20" as="geometry" />
        </mxCell>
        <mxCell id="QcT9AZfzLPAWue5aMM_R-236" value="geocoder" style="text;strokeColor=none;fillColor=none;align=left;verticalAlign=middle;spacingLeft=4;spacingRight=4;overflow=hidden;points=[[0,0.5],[1,0.5]];portConstraint=eastwest;rotatable=0;whiteSpace=wrap;html=1;" parent="QcT9AZfzLPAWue5aMM_R-156" vertex="1">
          <mxGeometry y="40" width="240" height="20" as="geometry" />
        </mxCell>
        <mxCell id="QcT9AZfzLPAWue5aMM_R-157" value="geolocation" style="swimlane;fontStyle=0;childLayout=stackLayout;horizontal=1;startSize=30;horizontalStack=0;resizeParent=1;resizeParentMax=0;resizeLast=0;collapsible=1;marginBottom=0;whiteSpace=wrap;html=1;" parent="QcT9AZfzLPAWue5aMM_R-156" vertex="1" collapsed="1">
          <mxGeometry y="60" width="240" height="20" as="geometry">
            <mxRectangle y="60" width="260" height="310" as="alternateBounds" />
          </mxGeometry>
        </mxCell>
        <mxCell id="QcT9AZfzLPAWue5aMM_R-159" value="business_program" style="text;strokeColor=none;fillColor=none;align=left;verticalAlign=middle;spacingLeft=4;spacingRight=4;overflow=hidden;points=[[0,0.5],[1,0.5]];portConstraint=eastwest;rotatable=0;whiteSpace=wrap;html=1;" parent="QcT9AZfzLPAWue5aMM_R-157" vertex="1">
          <mxGeometry y="30" width="260" height="20" as="geometry" />
        </mxCell>
        <mxCell id="QcT9AZfzLPAWue5aMM_R-160" value="business_type" style="text;strokeColor=none;fillColor=none;align=left;verticalAlign=middle;spacingLeft=4;spacingRight=4;overflow=hidden;points=[[0,0.5],[1,0.5]];portConstraint=eastwest;rotatable=0;whiteSpace=wrap;html=1;" parent="QcT9AZfzLPAWue5aMM_R-157" vertex="1">
          <mxGeometry y="50" width="260" height="20" as="geometry" />
        </mxCell>
        <mxCell id="QcT9AZfzLPAWue5aMM_R-161" value="business_id" style="text;strokeColor=none;fillColor=none;align=left;verticalAlign=middle;spacingLeft=4;spacingRight=4;overflow=hidden;points=[[0,0.5],[1,0.5]];portConstraint=eastwest;rotatable=0;whiteSpace=wrap;html=1;" parent="QcT9AZfzLPAWue5aMM_R-157" vertex="1">
          <mxGeometry y="70" width="260" height="20" as="geometry" />
        </mxCell>
        <mxCell id="QcT9AZfzLPAWue5aMM_R-238" value="long" style="text;strokeColor=none;fillColor=none;align=left;verticalAlign=middle;spacingLeft=4;spacingRight=4;overflow=hidden;points=[[0,0.5],[1,0.5]];portConstraint=eastwest;rotatable=0;whiteSpace=wrap;html=1;" parent="QcT9AZfzLPAWue5aMM_R-157" vertex="1">
          <mxGeometry y="90" width="260" height="20" as="geometry" />
        </mxCell>
        <mxCell id="QcT9AZfzLPAWue5aMM_R-163" value="lat" style="text;strokeColor=none;fillColor=none;align=left;verticalAlign=middle;spacingLeft=4;spacingRight=4;overflow=hidden;points=[[0,0.5],[1,0.5]];portConstraint=eastwest;rotatable=0;whiteSpace=wrap;html=1;" parent="QcT9AZfzLPAWue5aMM_R-157" vertex="1">
          <mxGeometry y="110" width="260" height="20" as="geometry" />
        </mxCell>
        <mxCell id="QcT9AZfzLPAWue5aMM_R-240" value="precision" style="text;strokeColor=none;fillColor=none;align=left;verticalAlign=middle;spacingLeft=4;spacingRight=4;overflow=hidden;points=[[0,0.5],[1,0.5]];portConstraint=eastwest;rotatable=0;whiteSpace=wrap;html=1;" parent="QcT9AZfzLPAWue5aMM_R-157" vertex="1">
          <mxGeometry y="130" width="260" height="20" as="geometry" />
        </mxCell>
        <mxCell id="QcT9AZfzLPAWue5aMM_R-241" value="required_address" style="text;strokeColor=none;fillColor=none;align=left;verticalAlign=middle;spacingLeft=4;spacingRight=4;overflow=hidden;points=[[0,0.5],[1,0.5]];portConstraint=eastwest;rotatable=0;whiteSpace=wrap;html=1;" parent="QcT9AZfzLPAWue5aMM_R-157" vertex="1">
          <mxGeometry y="150" width="260" height="20" as="geometry" />
        </mxCell>
        <mxCell id="QcT9AZfzLPAWue5aMM_R-242" value="submitted_address" style="text;strokeColor=none;fillColor=none;align=left;verticalAlign=middle;spacingLeft=4;spacingRight=4;overflow=hidden;points=[[0,0.5],[1,0.5]];portConstraint=eastwest;rotatable=0;whiteSpace=wrap;html=1;" parent="QcT9AZfzLPAWue5aMM_R-157" vertex="1">
          <mxGeometry y="170" width="260" height="20" as="geometry" />
        </mxCell>
        <mxCell id="QcT9AZfzLPAWue5aMM_R-239" value="databc_long" style="text;strokeColor=none;fillColor=none;align=left;verticalAlign=middle;spacingLeft=4;spacingRight=4;overflow=hidden;points=[[0,0.5],[1,0.5]];portConstraint=eastwest;rotatable=0;whiteSpace=wrap;html=1;" parent="QcT9AZfzLPAWue5aMM_R-157" vertex="1">
          <mxGeometry y="190" width="260" height="20" as="geometry" />
        </mxCell>
        <mxCell id="QcT9AZfzLPAWue5aMM_R-243" value="databc_lat" style="text;strokeColor=none;fillColor=none;align=left;verticalAlign=middle;spacingLeft=4;spacingRight=4;overflow=hidden;points=[[0,0.5],[1,0.5]];portConstraint=eastwest;rotatable=0;whiteSpace=wrap;html=1;" parent="QcT9AZfzLPAWue5aMM_R-157" vertex="1">
          <mxGeometry y="210" width="260" height="20" as="geometry" />
        </mxCell>
        <mxCell id="QcT9AZfzLPAWue5aMM_R-245" value="databc_score" style="text;strokeColor=none;fillColor=none;align=left;verticalAlign=middle;spacingLeft=4;spacingRight=4;overflow=hidden;points=[[0,0.5],[1,0.5]];portConstraint=eastwest;rotatable=0;whiteSpace=wrap;html=1;" parent="QcT9AZfzLPAWue5aMM_R-157" vertex="1">
          <mxGeometry y="230" width="260" height="20" as="geometry" />
        </mxCell>
        <mxCell id="QcT9AZfzLPAWue5aMM_R-246" value="databc_precision" style="text;strokeColor=none;fillColor=none;align=left;verticalAlign=middle;spacingLeft=4;spacingRight=4;overflow=hidden;points=[[0,0.5],[1,0.5]];portConstraint=eastwest;rotatable=0;whiteSpace=wrap;html=1;" parent="QcT9AZfzLPAWue5aMM_R-157" vertex="1">
          <mxGeometry y="250" width="260" height="20" as="geometry" />
        </mxCell>
        <mxCell id="QcT9AZfzLPAWue5aMM_R-247" value="full_address" style="text;strokeColor=none;fillColor=none;align=left;verticalAlign=middle;spacingLeft=4;spacingRight=4;overflow=hidden;points=[[0,0.5],[1,0.5]];portConstraint=eastwest;rotatable=0;whiteSpace=wrap;html=1;" parent="QcT9AZfzLPAWue5aMM_R-157" vertex="1">
          <mxGeometry y="270" width="260" height="20" as="geometry" />
        </mxCell>
        <mxCell id="QcT9AZfzLPAWue5aMM_R-244" value="faults" style="text;strokeColor=none;fillColor=none;align=left;verticalAlign=middle;spacingLeft=4;spacingRight=4;overflow=hidden;points=[[0,0.5],[1,0.5]];portConstraint=eastwest;rotatable=0;whiteSpace=wrap;html=1;" parent="QcT9AZfzLPAWue5aMM_R-157" vertex="1">
          <mxGeometry y="290" width="260" height="20" as="geometry" />
        </mxCell>
        <mxCell id="QcT9AZfzLPAWue5aMM_R-190" style="edgeStyle=orthogonalEdgeStyle;rounded=0;orthogonalLoop=1;jettySize=auto;html=1;entryX=0.5;entryY=0;entryDx=0;entryDy=0;" parent="1" source="QcT9AZfzLPAWue5aMM_R-165" target="QcT9AZfzLPAWue5aMM_R-180" edge="1">
          <mxGeometry relative="1" as="geometry" />
        </mxCell>
        <mxCell id="QcT9AZfzLPAWue5aMM_R-165" value="clean up address" style="swimlane;fontStyle=0;childLayout=stackLayout;horizontal=1;startSize=20;horizontalStack=0;resizeParent=1;resizeParentMax=0;resizeLast=0;collapsible=1;marginBottom=0;whiteSpace=wrap;html=1;" parent="1" vertex="1">
          <mxGeometry x="-437.25" y="950" width="400" height="80" as="geometry">
            <mxRectangle x="-437.25" y="1139.5" width="240" height="20" as="alternateBounds" />
          </mxGeometry>
        </mxCell>
        <mxCell id="QcT9AZfzLPAWue5aMM_R-171" value="args" style="swimlane;fontStyle=0;childLayout=stackLayout;horizontal=1;startSize=20;horizontalStack=0;resizeParent=1;resizeParentMax=0;resizeLast=0;collapsible=1;marginBottom=0;whiteSpace=wrap;html=1;" parent="QcT9AZfzLPAWue5aMM_R-165" vertex="1">
          <mxGeometry y="20" width="400" height="60" as="geometry">
            <mxRectangle y="40" width="260" height="20" as="alternateBounds" />
          </mxGeometry>
        </mxCell>
        <mxCell id="QcT9AZfzLPAWue5aMM_R-173" value="address_clean: replaces(address_raw)" style="text;strokeColor=none;fillColor=none;align=left;verticalAlign=middle;spacingLeft=4;spacingRight=4;overflow=hidden;points=[[0,0.5],[1,0.5]];portConstraint=eastwest;rotatable=0;whiteSpace=wrap;html=1;" parent="QcT9AZfzLPAWue5aMM_R-171" vertex="1">
          <mxGeometry y="20" width="400" height="20" as="geometry" />
        </mxCell>
        <mxCell id="QcT9AZfzLPAWue5aMM_R-196" value="address: address_clean" style="text;strokeColor=none;fillColor=none;align=left;verticalAlign=middle;spacingLeft=4;spacingRight=4;overflow=hidden;points=[[0,0.5],[1,0.5]];portConstraint=eastwest;rotatable=0;whiteSpace=wrap;html=1;" parent="QcT9AZfzLPAWue5aMM_R-171" vertex="1">
          <mxGeometry y="40" width="400" height="20" as="geometry" />
        </mxCell>
        <mxCell id="QcT9AZfzLPAWue5aMM_R-203" style="edgeStyle=orthogonalEdgeStyle;rounded=0;orthogonalLoop=1;jettySize=auto;html=1;" parent="1" source="QcT9AZfzLPAWue5aMM_R-180" target="QcT9AZfzLPAWue5aMM_R-200" edge="1">
          <mxGeometry relative="1" as="geometry">
            <Array as="points">
              <mxPoint x="-240" y="1130.5" />
              <mxPoint x="-240" y="1130.5" />
            </Array>
          </mxGeometry>
        </mxCell>
        <mxCell id="QcT9AZfzLPAWue5aMM_R-180" value="build payload geocoder" style="swimlane;fontStyle=0;childLayout=stackLayout;horizontal=1;startSize=20;horizontalStack=0;resizeParent=1;resizeParentMax=0;resizeLast=0;collapsible=1;marginBottom=0;whiteSpace=wrap;html=1;" parent="1" vertex="1">
          <mxGeometry x="-437.25" y="1060.5" width="400" height="60" as="geometry">
            <mxRectangle x="-360" y="980" width="240" height="20" as="alternateBounds" />
          </mxGeometry>
        </mxCell>
        <mxCell id="QcT9AZfzLPAWue5aMM_R-197" value="args" style="swimlane;fontStyle=0;childLayout=stackLayout;horizontal=1;startSize=20;horizontalStack=0;resizeParent=1;resizeParentMax=0;resizeLast=0;collapsible=1;marginBottom=0;whiteSpace=wrap;html=1;" parent="QcT9AZfzLPAWue5aMM_R-180" vertex="1">
          <mxGeometry y="20" width="400" height="40" as="geometry">
            <mxRectangle y="40" width="260" height="20" as="alternateBounds" />
          </mxGeometry>
        </mxCell>
        <mxCell id="QcT9AZfzLPAWue5aMM_R-198" value="payload: address" style="text;strokeColor=none;fillColor=none;align=left;verticalAlign=middle;spacingLeft=4;spacingRight=4;overflow=hidden;points=[[0,0.5],[1,0.5]];portConstraint=eastwest;rotatable=0;whiteSpace=wrap;html=1;" parent="QcT9AZfzLPAWue5aMM_R-197" vertex="1">
          <mxGeometry y="20" width="400" height="20" as="geometry" />
        </mxCell>
        <mxCell id="QcT9AZfzLPAWue5aMM_R-254" style="edgeStyle=orthogonalEdgeStyle;rounded=0;orthogonalLoop=1;jettySize=auto;html=1;entryX=0.5;entryY=0;entryDx=0;entryDy=0;" parent="1" source="QcT9AZfzLPAWue5aMM_R-200" target="QcT9AZfzLPAWue5aMM_R-156" edge="1">
          <mxGeometry relative="1" as="geometry" />
        </mxCell>
        <mxCell id="QcT9AZfzLPAWue5aMM_R-200" value="Call Geocoder" style="rounded=0;whiteSpace=wrap;html=1;" parent="1" vertex="1">
          <mxGeometry x="-320" y="1150.5" width="160" height="40" as="geometry" />
        </mxCell>
        <mxCell id="QcT9AZfzLPAWue5aMM_R-204" style="edgeStyle=orthogonalEdgeStyle;rounded=0;orthogonalLoop=1;jettySize=auto;html=1;" parent="1" edge="1">
          <mxGeometry relative="1" as="geometry">
            <mxPoint x="-720.74" y="1620" as="sourcePoint" />
            <mxPoint x="-720.74" y="1650" as="targetPoint" />
            <Array as="points">
              <mxPoint x="-720" y="1630" />
              <mxPoint x="-720" y="1630" />
            </Array>
          </mxGeometry>
        </mxCell>
        <mxCell id="QcT9AZfzLPAWue5aMM_R-205" value="Create Table to Insert" style="swimlane;fontStyle=0;childLayout=stackLayout;horizontal=1;startSize=30;horizontalStack=0;resizeParent=1;resizeParentMax=0;resizeLast=0;collapsible=1;marginBottom=0;whiteSpace=wrap;html=1;" parent="1" vertex="1" collapsed="1">
          <mxGeometry x="-840" y="1600" width="240" height="20" as="geometry">
            <mxRectangle x="-831" y="620" width="260" height="70" as="alternateBounds" />
          </mxGeometry>
        </mxCell>
        <mxCell id="QcT9AZfzLPAWue5aMM_R-206" value="config:&amp;nbsp;" style="text;strokeColor=none;fillColor=none;align=left;verticalAlign=middle;spacingLeft=4;spacingRight=4;overflow=hidden;points=[[0,0.5],[1,0.5]];portConstraint=eastwest;rotatable=0;whiteSpace=wrap;html=1;" parent="QcT9AZfzLPAWue5aMM_R-205" vertex="1">
          <mxGeometry y="30" width="260" height="20" as="geometry" />
        </mxCell>
        <mxCell id="QcT9AZfzLPAWue5aMM_R-207" value="message:" style="text;strokeColor=none;fillColor=none;align=left;verticalAlign=middle;spacingLeft=4;spacingRight=4;overflow=hidden;points=[[0,0.5],[1,0.5]];portConstraint=eastwest;rotatable=0;whiteSpace=wrap;html=1;" parent="QcT9AZfzLPAWue5aMM_R-205" vertex="1">
          <mxGeometry y="50" width="260" height="20" as="geometry" />
        </mxCell>
        <mxCell id="QcT9AZfzLPAWue5aMM_R-208" style="edgeStyle=orthogonalEdgeStyle;rounded=0;orthogonalLoop=1;jettySize=auto;html=1;" parent="1" source="QcT9AZfzLPAWue5aMM_R-209" target="QcT9AZfzLPAWue5aMM_R-219" edge="1">
          <mxGeometry relative="1" as="geometry">
            <Array as="points">
              <mxPoint x="-720" y="1700" />
              <mxPoint x="-720" y="1700" />
            </Array>
          </mxGeometry>
        </mxCell>
        <mxCell id="QcT9AZfzLPAWue5aMM_R-209" value="Convert to Table" style="swimlane;fontStyle=0;childLayout=stackLayout;horizontal=1;startSize=30;horizontalStack=0;resizeParent=1;resizeParentMax=0;resizeLast=0;collapsible=1;marginBottom=0;whiteSpace=wrap;html=1;" parent="1" vertex="1" collapsed="1">
          <mxGeometry x="-840" y="1650" width="240" height="20" as="geometry">
            <mxRectangle x="-831.5" y="680" width="260" height="70" as="alternateBounds" />
          </mxGeometry>
        </mxCell>
        <mxCell id="QcT9AZfzLPAWue5aMM_R-210" value="message_datatype: message[event_type]" style="text;strokeColor=none;fillColor=none;align=left;verticalAlign=middle;spacingLeft=4;spacingRight=4;overflow=hidden;points=[[0,0.5],[1,0.5]];portConstraint=eastwest;rotatable=0;whiteSpace=wrap;html=1;" parent="QcT9AZfzLPAWue5aMM_R-209" vertex="1">
          <mxGeometry y="30" width="260" height="20" as="geometry" />
        </mxCell>
        <mxCell id="QcT9AZfzLPAWue5aMM_R-211" value="tables" style="swimlane;fontStyle=0;childLayout=stackLayout;horizontal=1;startSize=30;horizontalStack=0;resizeParent=1;resizeParentMax=0;resizeLast=0;collapsible=1;marginBottom=0;whiteSpace=wrap;html=1;" parent="QcT9AZfzLPAWue5aMM_R-209" vertex="1" collapsed="1">
          <mxGeometry y="50" width="260" height="20" as="geometry">
            <mxRectangle y="50" width="260" height="110" as="alternateBounds" />
          </mxGeometry>
        </mxCell>
        <mxCell id="QcT9AZfzLPAWue5aMM_R-212" value="relationship: one-to-one&lt;br&gt;" style="text;strokeColor=none;fillColor=none;align=left;verticalAlign=middle;spacingLeft=4;spacingRight=4;overflow=hidden;points=[[0,0.5],[1,0.5]];portConstraint=eastwest;rotatable=0;whiteSpace=wrap;html=1;" parent="QcT9AZfzLPAWue5aMM_R-211" vertex="1">
          <mxGeometry y="30" width="260" height="20" as="geometry" />
        </mxCell>
        <mxCell id="QcT9AZfzLPAWue5aMM_R-213" value="key_id:&amp;nbsp;" style="text;strokeColor=none;fillColor=none;align=left;verticalAlign=middle;spacingLeft=4;spacingRight=4;overflow=hidden;points=[[0,0.5],[1,0.5]];portConstraint=eastwest;rotatable=0;whiteSpace=wrap;html=1;" parent="QcT9AZfzLPAWue5aMM_R-211" vertex="1">
          <mxGeometry y="50" width="260" height="20" as="geometry" />
        </mxCell>
        <mxCell id="QcT9AZfzLPAWue5aMM_R-214" value="key_field_name:&amp;nbsp;" style="text;strokeColor=none;fillColor=none;align=left;verticalAlign=middle;spacingLeft=4;spacingRight=4;overflow=hidden;points=[[0,0.5],[1,0.5]];portConstraint=eastwest;rotatable=0;whiteSpace=wrap;html=1;" parent="QcT9AZfzLPAWue5aMM_R-211" vertex="1">
          <mxGeometry y="70" width="260" height="20" as="geometry" />
        </mxCell>
        <mxCell id="QcT9AZfzLPAWue5aMM_R-215" value="records" style="swimlane;fontStyle=0;childLayout=stackLayout;horizontal=1;startSize=30;horizontalStack=0;resizeParent=1;resizeParentMax=0;resizeLast=0;collapsible=1;marginBottom=0;whiteSpace=wrap;html=1;" parent="QcT9AZfzLPAWue5aMM_R-211" vertex="1" collapsed="1">
          <mxGeometry y="90" width="260" height="20" as="geometry">
            <mxRectangle y="50" width="260" height="70" as="alternateBounds" />
          </mxGeometry>
        </mxCell>
        <mxCell id="QcT9AZfzLPAWue5aMM_R-216" value="column" style="text;strokeColor=none;fillColor=none;align=left;verticalAlign=middle;spacingLeft=4;spacingRight=4;overflow=hidden;points=[[0,0.5],[1,0.5]];portConstraint=eastwest;rotatable=0;whiteSpace=wrap;html=1;" parent="QcT9AZfzLPAWue5aMM_R-215" vertex="1">
          <mxGeometry y="30" width="260" height="20" as="geometry" />
        </mxCell>
        <mxCell id="QcT9AZfzLPAWue5aMM_R-217" value="value" style="text;strokeColor=none;fillColor=none;align=left;verticalAlign=middle;spacingLeft=4;spacingRight=4;overflow=hidden;points=[[0,0.5],[1,0.5]];portConstraint=eastwest;rotatable=0;whiteSpace=wrap;html=1;" parent="QcT9AZfzLPAWue5aMM_R-215" vertex="1">
          <mxGeometry y="50" width="260" height="20" as="geometry" />
        </mxCell>
        <mxCell id="QcT9AZfzLPAWue5aMM_R-218" style="edgeStyle=orthogonalEdgeStyle;rounded=0;orthogonalLoop=1;jettySize=auto;html=1;entryX=0.5;entryY=0;entryDx=0;entryDy=0;" parent="1" source="QcT9AZfzLPAWue5aMM_R-219" target="QcT9AZfzLPAWue5aMM_R-220" edge="1">
          <mxGeometry relative="1" as="geometry" />
        </mxCell>
        <mxCell id="QcT9AZfzLPAWue5aMM_R-219" value="Insert database rows" style="rounded=1;whiteSpace=wrap;html=1;" parent="1" vertex="1">
          <mxGeometry x="-800" y="1730" width="160" height="40" as="geometry" />
        </mxCell>
        <mxCell id="QcT9AZfzLPAWue5aMM_R-220" value="rest okay" style="rounded=1;whiteSpace=wrap;html=1;" parent="1" vertex="1">
          <mxGeometry x="-800" y="1810" width="160" height="40" as="geometry" />
        </mxCell>
        <mxCell id="QcT9AZfzLPAWue5aMM_R-230" value="" style="edgeStyle=orthogonalEdgeStyle;rounded=0;orthogonalLoop=1;jettySize=auto;html=1;entryX=0.5;entryY=0;entryDx=0;entryDy=0;" parent="1" source="QcT9AZfzLPAWue5aMM_R-89" target="QcT9AZfzLPAWue5aMM_R-229" edge="1">
          <mxGeometry relative="1" as="geometry">
            <mxPoint x="-400" y="600" as="sourcePoint" />
            <mxPoint x="-720" y="1029.5" as="targetPoint" />
            <Array as="points">
              <mxPoint x="-400" y="650" />
              <mxPoint x="-720" y="650" />
            </Array>
          </mxGeometry>
        </mxCell>
        <mxCell id="QcT9AZfzLPAWue5aMM_R-253" style="edgeStyle=orthogonalEdgeStyle;rounded=0;orthogonalLoop=1;jettySize=auto;html=1;" parent="1" source="QcT9AZfzLPAWue5aMM_R-229" target="QcT9AZfzLPAWue5aMM_R-205" edge="1">
          <mxGeometry relative="1" as="geometry" />
        </mxCell>
        <mxCell id="QcT9AZfzLPAWue5aMM_R-229" value="DB Persistence" style="ellipse;whiteSpace=wrap;html=1;aspect=fixed;" parent="1" vertex="1">
          <mxGeometry x="-760" y="1470" width="80" height="80" as="geometry" />
        </mxCell>
        <mxCell id="6U3Xhx1Mx8cUrw_Yhpew-1" style="edgeStyle=orthogonalEdgeStyle;rounded=0;orthogonalLoop=1;jettySize=auto;html=1;" parent="1" source="QcT9AZfzLPAWue5aMM_R-157" target="QcT9AZfzLPAWue5aMM_R-229" edge="1">
          <mxGeometry relative="1" as="geometry">
            <Array as="points">
              <mxPoint x="-240" y="1400" />
              <mxPoint x="-720" y="1400" />
            </Array>
          </mxGeometry>
        </mxCell>
      </root>
    </mxGraphModel>
  </diagram>
  <diagram id="7NTDB7C-gm-JSK2fjq1i" name="PÃ¡gina-2">
    <mxGraphModel dx="2485" dy="820" grid="1" gridSize="10" guides="1" tooltips="1" connect="1" arrows="1" fold="1" page="1" pageScale="1" pageWidth="827" pageHeight="1169" math="0" shadow="0">
      <root>
        <mxCell id="0" />
        <mxCell id="1" parent="0" />
        <mxCell id="uJvYWeS08IraSfvc5noM-1" style="edgeStyle=orthogonalEdgeStyle;rounded=0;orthogonalLoop=1;jettySize=auto;html=1;" edge="1" parent="1" source="uJvYWeS08IraSfvc5noM-2" target="uJvYWeS08IraSfvc5noM-4">
          <mxGeometry relative="1" as="geometry" />
        </mxCell>
        <mxCell id="uJvYWeS08IraSfvc5noM-2" value="Check&amp;nbsp; Partner Interface Status" style="shape=process;whiteSpace=wrap;html=1;backgroundOutline=1;" vertex="1" parent="1">
          <mxGeometry x="160" y="160" width="160" height="40" as="geometry" />
        </mxCell>
        <mxCell id="uJvYWeS08IraSfvc5noM-3" style="edgeStyle=orthogonalEdgeStyle;rounded=0;orthogonalLoop=1;jettySize=auto;html=1;entryX=0;entryY=0.5;entryDx=0;entryDy=0;" edge="1" parent="1" source="uJvYWeS08IraSfvc5noM-4" target="uJvYWeS08IraSfvc5noM-6">
          <mxGeometry relative="1" as="geometry" />
        </mxCell>
        <mxCell id="uJvYWeS08IraSfvc5noM-4" value="is the interface&amp;nbsp;&lt;br&gt;stopped?" style="rhombus;whiteSpace=wrap;html=1;" vertex="1" parent="1">
          <mxGeometry x="182.5" y="230" width="115" height="100" as="geometry" />
        </mxCell>
        <mxCell id="uJvYWeS08IraSfvc5noM-5" style="edgeStyle=orthogonalEdgeStyle;rounded=0;orthogonalLoop=1;jettySize=auto;html=1;" edge="1" parent="1" source="uJvYWeS08IraSfvc5noM-6" target="uJvYWeS08IraSfvc5noM-11">
          <mxGeometry relative="1" as="geometry" />
        </mxCell>
        <mxCell id="uJvYWeS08IraSfvc5noM-6" value="Send&amp;nbsp; Ticket to ICBC" style="rounded=1;whiteSpace=wrap;html=1;" vertex="1" parent="1">
          <mxGeometry x="370" y="250" width="150" height="60" as="geometry" />
        </mxCell>
        <mxCell id="uJvYWeS08IraSfvc5noM-7" value="NO" style="text;html=1;strokeColor=none;fillColor=none;align=center;verticalAlign=middle;whiteSpace=wrap;rounded=0;" vertex="1" parent="1">
          <mxGeometry x="270" y="240" width="60" height="30" as="geometry" />
        </mxCell>
        <mxCell id="uJvYWeS08IraSfvc5noM-8" style="edgeStyle=orthogonalEdgeStyle;rounded=0;orthogonalLoop=1;jettySize=auto;html=1;entryX=0.5;entryY=0;entryDx=0;entryDy=0;" edge="1" parent="1" source="uJvYWeS08IraSfvc5noM-11" target="uJvYWeS08IraSfvc5noM-13">
          <mxGeometry relative="1" as="geometry">
            <Array as="points">
              <mxPoint x="445" y="430" />
              <mxPoint x="220" y="430" />
            </Array>
          </mxGeometry>
        </mxCell>
        <mxCell id="uJvYWeS08IraSfvc5noM-9" style="edgeStyle=orthogonalEdgeStyle;rounded=0;orthogonalLoop=1;jettySize=auto;html=1;" edge="1" parent="1" source="uJvYWeS08IraSfvc5noM-11" target="uJvYWeS08IraSfvc5noM-15">
          <mxGeometry relative="1" as="geometry" />
        </mxCell>
        <mxCell id="uJvYWeS08IraSfvc5noM-10" style="edgeStyle=orthogonalEdgeStyle;rounded=0;orthogonalLoop=1;jettySize=auto;html=1;" edge="1" parent="1" source="uJvYWeS08IraSfvc5noM-11" target="uJvYWeS08IraSfvc5noM-17">
          <mxGeometry relative="1" as="geometry">
            <Array as="points">
              <mxPoint x="445" y="430" />
              <mxPoint x="650" y="430" />
            </Array>
          </mxGeometry>
        </mxCell>
        <mxCell id="uJvYWeS08IraSfvc5noM-11" value="Response Processing Interface" style="shape=process;whiteSpace=wrap;html=1;backgroundOutline=1;" vertex="1" parent="1">
          <mxGeometry x="358" y="350" width="175" height="40" as="geometry" />
        </mxCell>
        <mxCell id="uJvYWeS08IraSfvc5noM-12" style="edgeStyle=orthogonalEdgeStyle;rounded=0;orthogonalLoop=1;jettySize=auto;html=1;entryX=0.5;entryY=0;entryDx=0;entryDy=0;" edge="1" parent="1" source="uJvYWeS08IraSfvc5noM-13" target="uJvYWeS08IraSfvc5noM-22">
          <mxGeometry relative="1" as="geometry" />
        </mxCell>
        <mxCell id="uJvYWeS08IraSfvc5noM-13" value="ACCEPTED" style="rounded=0;whiteSpace=wrap;html=1;" vertex="1" parent="1">
          <mxGeometry x="160" y="480" width="120" height="60" as="geometry" />
        </mxCell>
        <mxCell id="uJvYWeS08IraSfvc5noM-14" value="" style="edgeStyle=orthogonalEdgeStyle;rounded=0;orthogonalLoop=1;jettySize=auto;html=1;" edge="1" parent="1" source="uJvYWeS08IraSfvc5noM-15" target="uJvYWeS08IraSfvc5noM-35">
          <mxGeometry relative="1" as="geometry" />
        </mxCell>
        <mxCell id="uJvYWeS08IraSfvc5noM-15" value="OK or&lt;br&gt;CREATED" style="rounded=0;whiteSpace=wrap;html=1;" vertex="1" parent="1">
          <mxGeometry x="385.5" y="480" width="120" height="60" as="geometry" />
        </mxCell>
        <mxCell id="uJvYWeS08IraSfvc5noM-16" value="" style="edgeStyle=orthogonalEdgeStyle;rounded=0;orthogonalLoop=1;jettySize=auto;html=1;" edge="1" parent="1" source="uJvYWeS08IraSfvc5noM-17" target="uJvYWeS08IraSfvc5noM-76">
          <mxGeometry relative="1" as="geometry" />
        </mxCell>
        <mxCell id="uJvYWeS08IraSfvc5noM-17" value="BAD&lt;br&gt;REQUEST" style="rounded=0;whiteSpace=wrap;html=1;" vertex="1" parent="1">
          <mxGeometry x="590" y="480" width="120" height="60" as="geometry" />
        </mxCell>
        <mxCell id="uJvYWeS08IraSfvc5noM-18" style="edgeStyle=orthogonalEdgeStyle;rounded=0;orthogonalLoop=1;jettySize=auto;html=1;" edge="1" parent="1" source="uJvYWeS08IraSfvc5noM-19" target="uJvYWeS08IraSfvc5noM-2">
          <mxGeometry relative="1" as="geometry" />
        </mxCell>
        <mxCell id="uJvYWeS08IraSfvc5noM-19" value="Resquest&lt;br style=&quot;border-color: var(--border-color);&quot;&gt;QueryTicket" style="ellipse;whiteSpace=wrap;html=1;" vertex="1" parent="1">
          <mxGeometry x="179.5" y="60" width="120" height="60" as="geometry" />
        </mxCell>
        <mxCell id="uJvYWeS08IraSfvc5noM-20" style="edgeStyle=orthogonalEdgeStyle;rounded=0;orthogonalLoop=1;jettySize=auto;html=1;entryX=0.449;entryY=0.036;entryDx=0;entryDy=0;entryPerimeter=0;" edge="1" parent="1" source="uJvYWeS08IraSfvc5noM-21" target="uJvYWeS08IraSfvc5noM-74">
          <mxGeometry relative="1" as="geometry" />
        </mxCell>
        <mxCell id="uJvYWeS08IraSfvc5noM-21" value="NOT FOUND" style="rounded=0;whiteSpace=wrap;html=1;" vertex="1" parent="1">
          <mxGeometry x="30" y="900" width="120" height="40" as="geometry" />
        </mxCell>
        <mxCell id="uJvYWeS08IraSfvc5noM-22" value="Custom Status" style="swimlane;fontStyle=0;childLayout=stackLayout;horizontal=1;startSize=30;horizontalStack=0;resizeParent=1;resizeParentMax=0;resizeLast=0;collapsible=1;marginBottom=0;whiteSpace=wrap;html=1;" vertex="1" parent="1">
          <mxGeometry x="160" y="600" width="120" height="120" as="geometry" />
        </mxCell>
        <mxCell id="uJvYWeS08IraSfvc5noM-23" value="Status Code" style="text;strokeColor=none;fillColor=none;align=left;verticalAlign=middle;spacingLeft=4;spacingRight=4;overflow=hidden;points=[[0,0.5],[1,0.5]];portConstraint=eastwest;rotatable=0;whiteSpace=wrap;html=1;" vertex="1" parent="uJvYWeS08IraSfvc5noM-22">
          <mxGeometry y="30" width="120" height="30" as="geometry" />
        </mxCell>
        <mxCell id="uJvYWeS08IraSfvc5noM-24" value="Error Source" style="text;strokeColor=none;fillColor=none;align=left;verticalAlign=middle;spacingLeft=4;spacingRight=4;overflow=hidden;points=[[0,0.5],[1,0.5]];portConstraint=eastwest;rotatable=0;whiteSpace=wrap;html=1;" vertex="1" parent="uJvYWeS08IraSfvc5noM-22">
          <mxGeometry y="60" width="120" height="30" as="geometry" />
        </mxCell>
        <mxCell id="uJvYWeS08IraSfvc5noM-25" value="Error Flag" style="text;strokeColor=none;fillColor=none;align=left;verticalAlign=middle;spacingLeft=4;spacingRight=4;overflow=hidden;points=[[0,0.5],[1,0.5]];portConstraint=eastwest;rotatable=0;whiteSpace=wrap;html=1;" vertex="1" parent="uJvYWeS08IraSfvc5noM-22">
          <mxGeometry y="90" width="120" height="30" as="geometry" />
        </mxCell>
        <mxCell id="uJvYWeS08IraSfvc5noM-26" value="" style="edgeStyle=orthogonalEdgeStyle;rounded=0;orthogonalLoop=1;jettySize=auto;html=1;" edge="1" parent="1" source="uJvYWeS08IraSfvc5noM-28" target="uJvYWeS08IraSfvc5noM-21">
          <mxGeometry relative="1" as="geometry" />
        </mxCell>
        <mxCell id="uJvYWeS08IraSfvc5noM-27" value="" style="edgeStyle=orthogonalEdgeStyle;rounded=0;orthogonalLoop=1;jettySize=auto;html=1;" edge="1" parent="1" source="uJvYWeS08IraSfvc5noM-28" target="uJvYWeS08IraSfvc5noM-31">
          <mxGeometry relative="1" as="geometry" />
        </mxCell>
        <mxCell id="uJvYWeS08IraSfvc5noM-28" value="Type Error" style="rhombus;whiteSpace=wrap;html=1;" vertex="1" parent="1">
          <mxGeometry x="50" y="730" width="80" height="80" as="geometry" />
        </mxCell>
        <mxCell id="uJvYWeS08IraSfvc5noM-29" style="edgeStyle=orthogonalEdgeStyle;rounded=0;orthogonalLoop=1;jettySize=auto;html=1;entryX=0.5;entryY=0;entryDx=0;entryDy=0;" edge="1" parent="1" source="uJvYWeS08IraSfvc5noM-23" target="uJvYWeS08IraSfvc5noM-28">
          <mxGeometry relative="1" as="geometry" />
        </mxCell>
        <mxCell id="uJvYWeS08IraSfvc5noM-30" value="" style="edgeStyle=orthogonalEdgeStyle;rounded=0;orthogonalLoop=1;jettySize=auto;html=1;" edge="1" parent="1" source="uJvYWeS08IraSfvc5noM-31" target="uJvYWeS08IraSfvc5noM-33">
          <mxGeometry relative="1" as="geometry" />
        </mxCell>
        <mxCell id="uJvYWeS08IraSfvc5noM-31" value="Client Exception&lt;br&gt;General Payment Error" style="whiteSpace=wrap;html=1;" vertex="1" parent="1">
          <mxGeometry x="-170" y="750" width="140" height="40" as="geometry" />
        </mxCell>
        <mxCell id="uJvYWeS08IraSfvc5noM-32" style="edgeStyle=orthogonalEdgeStyle;rounded=0;orthogonalLoop=1;jettySize=auto;html=1;" edge="1" parent="1" source="uJvYWeS08IraSfvc5noM-33" target="uJvYWeS08IraSfvc5noM-73">
          <mxGeometry relative="1" as="geometry" />
        </mxCell>
        <mxCell id="uJvYWeS08IraSfvc5noM-33" value="SERVICE UNAVAILABLE" style="whiteSpace=wrap;html=1;" vertex="1" parent="1">
          <mxGeometry x="-160" y="900" width="120" height="40" as="geometry" />
        </mxCell>
        <mxCell id="uJvYWeS08IraSfvc5noM-34" value="" style="edgeStyle=orthogonalEdgeStyle;rounded=0;orthogonalLoop=1;jettySize=auto;html=1;" edge="1" parent="1" source="uJvYWeS08IraSfvc5noM-35" target="uJvYWeS08IraSfvc5noM-38">
          <mxGeometry relative="1" as="geometry" />
        </mxCell>
        <mxCell id="uJvYWeS08IraSfvc5noM-35" value="Update ICBC QT Interfaces to RUNNING&amp;nbsp;&lt;br&gt;" style="rounded=1;whiteSpace=wrap;html=1;" vertex="1" parent="1">
          <mxGeometry x="380" y="575" width="130" height="65" as="geometry" />
        </mxCell>
        <mxCell id="uJvYWeS08IraSfvc5noM-36" style="edgeStyle=orthogonalEdgeStyle;rounded=0;orthogonalLoop=1;jettySize=auto;html=1;entryX=0.5;entryY=0;entryDx=0;entryDy=0;" edge="1" parent="1" source="uJvYWeS08IraSfvc5noM-38" target="uJvYWeS08IraSfvc5noM-67">
          <mxGeometry relative="1" as="geometry" />
        </mxCell>
        <mxCell id="uJvYWeS08IraSfvc5noM-37" style="edgeStyle=orthogonalEdgeStyle;rounded=0;orthogonalLoop=1;jettySize=auto;html=1;entryX=0.5;entryY=0;entryDx=0;entryDy=0;" edge="1" parent="1" source="uJvYWeS08IraSfvc5noM-38" target="uJvYWeS08IraSfvc5noM-40">
          <mxGeometry relative="1" as="geometry" />
        </mxCell>
        <mxCell id="uJvYWeS08IraSfvc5noM-38" value="Is the body empty?" style="rhombus;whiteSpace=wrap;html=1;" vertex="1" parent="1">
          <mxGeometry x="397.5" y="680" width="95" height="90" as="geometry" />
        </mxCell>
        <mxCell id="uJvYWeS08IraSfvc5noM-39" style="edgeStyle=orthogonalEdgeStyle;rounded=0;orthogonalLoop=1;jettySize=auto;html=1;entryX=1;entryY=0.5;entryDx=0;entryDy=0;" edge="1" parent="1" source="uJvYWeS08IraSfvc5noM-40" target="uJvYWeS08IraSfvc5noM-74">
          <mxGeometry relative="1" as="geometry" />
        </mxCell>
        <mxCell id="uJvYWeS08IraSfvc5noM-40" value="OK&lt;br&gt;" style="whiteSpace=wrap;html=1;" vertex="1" parent="1">
          <mxGeometry x="255" y="837" width="90" height="20" as="geometry" />
        </mxCell>
        <mxCell id="uJvYWeS08IraSfvc5noM-41" style="edgeStyle=orthogonalEdgeStyle;rounded=0;orthogonalLoop=1;jettySize=auto;html=1;entryX=0.5;entryY=0;entryDx=0;entryDy=0;" edge="1" parent="1" source="uJvYWeS08IraSfvc5noM-44" target="uJvYWeS08IraSfvc5noM-56">
          <mxGeometry relative="1" as="geometry" />
        </mxCell>
        <mxCell id="uJvYWeS08IraSfvc5noM-42" style="edgeStyle=orthogonalEdgeStyle;rounded=0;orthogonalLoop=1;jettySize=auto;html=1;entryX=0.5;entryY=0;entryDx=0;entryDy=0;" edge="1" parent="1" source="uJvYWeS08IraSfvc5noM-44" target="uJvYWeS08IraSfvc5noM-54">
          <mxGeometry relative="1" as="geometry">
            <Array as="points">
              <mxPoint x="445" y="1000" />
              <mxPoint x="290" y="1000" />
            </Array>
          </mxGeometry>
        </mxCell>
        <mxCell id="uJvYWeS08IraSfvc5noM-43" style="edgeStyle=orthogonalEdgeStyle;rounded=0;orthogonalLoop=1;jettySize=auto;html=1;entryX=0.5;entryY=0;entryDx=0;entryDy=0;" edge="1" parent="1" source="uJvYWeS08IraSfvc5noM-44" target="uJvYWeS08IraSfvc5noM-58">
          <mxGeometry relative="1" as="geometry">
            <Array as="points">
              <mxPoint x="445" y="1000" />
              <mxPoint x="585" y="1000" />
            </Array>
          </mxGeometry>
        </mxCell>
        <mxCell id="uJvYWeS08IraSfvc5noM-44" value="Invoice Search Response" style="rounded=0;whiteSpace=wrap;html=1;" vertex="1" parent="1">
          <mxGeometry x="383.75" y="940" width="122.5" height="45" as="geometry" />
        </mxCell>
        <mxCell id="uJvYWeS08IraSfvc5noM-45" value="202" style="text;html=1;strokeColor=none;fillColor=none;align=center;verticalAlign=middle;whiteSpace=wrap;rounded=0;" vertex="1" parent="1">
          <mxGeometry x="220" y="400" width="60" height="30" as="geometry" />
        </mxCell>
        <mxCell id="uJvYWeS08IraSfvc5noM-46" value="200" style="text;html=1;strokeColor=none;fillColor=none;align=center;verticalAlign=middle;whiteSpace=wrap;rounded=0;" vertex="1" parent="1">
          <mxGeometry x="397.5" y="430" width="60" height="30" as="geometry" />
        </mxCell>
        <mxCell id="uJvYWeS08IraSfvc5noM-47" value="201" style="text;html=1;strokeColor=none;fillColor=none;align=center;verticalAlign=middle;whiteSpace=wrap;rounded=0;" vertex="1" parent="1">
          <mxGeometry x="432.5" y="430" width="60" height="30" as="geometry" />
        </mxCell>
        <mxCell id="uJvYWeS08IraSfvc5noM-48" value="400" style="text;html=1;strokeColor=none;fillColor=none;align=center;verticalAlign=middle;whiteSpace=wrap;rounded=0;" vertex="1" parent="1">
          <mxGeometry x="600" y="400" width="60" height="30" as="geometry" />
        </mxCell>
        <mxCell id="uJvYWeS08IraSfvc5noM-49" value="404" style="text;html=1;strokeColor=none;fillColor=none;align=center;verticalAlign=middle;whiteSpace=wrap;rounded=0;" vertex="1" parent="1">
          <mxGeometry x="100" y="730" width="60" height="30" as="geometry" />
        </mxCell>
        <mxCell id="uJvYWeS08IraSfvc5noM-50" value="ICBC_MSG 201" style="text;html=1;strokeColor=none;fillColor=none;align=center;verticalAlign=middle;whiteSpace=wrap;rounded=0;" vertex="1" parent="1">
          <mxGeometry x="-210" y="940" width="90" height="30" as="geometry" />
        </mxCell>
        <mxCell id="uJvYWeS08IraSfvc5noM-51" value="503" style="text;html=1;strokeColor=none;fillColor=none;align=center;verticalAlign=middle;whiteSpace=wrap;rounded=0;" vertex="1" parent="1">
          <mxGeometry x="-160" y="1120" width="60" height="30" as="geometry" />
        </mxCell>
        <mxCell id="uJvYWeS08IraSfvc5noM-52" value="&lt;span style=&quot;color: rgb(0, 0, 0); font-family: Helvetica; font-size: 12px; font-style: normal; font-variant-ligatures: normal; font-variant-caps: normal; font-weight: 400; letter-spacing: normal; orphans: 2; text-align: center; text-indent: 0px; text-transform: none; widows: 2; word-spacing: 0px; -webkit-text-stroke-width: 0px; background-color: rgb(251, 251, 251); text-decoration-thickness: initial; text-decoration-style: initial; text-decoration-color: initial; float: none; display: inline !important;&quot;&gt;ICBC_MSG 101&lt;/span&gt;" style="text;whiteSpace=wrap;html=1;" vertex="1" parent="1">
          <mxGeometry x="255" y="857" width="90" height="20" as="geometry" />
        </mxCell>
        <mxCell id="uJvYWeS08IraSfvc5noM-53" style="edgeStyle=orthogonalEdgeStyle;rounded=0;orthogonalLoop=1;jettySize=auto;html=1;entryX=0;entryY=0.5;entryDx=0;entryDy=0;" edge="1" parent="1" source="uJvYWeS08IraSfvc5noM-54" target="uJvYWeS08IraSfvc5noM-71">
          <mxGeometry relative="1" as="geometry">
            <Array as="points">
              <mxPoint x="315" y="1180" />
            </Array>
          </mxGeometry>
        </mxCell>
        <mxCell id="uJvYWeS08IraSfvc5noM-54" value="ZERO OUTSTANDING" style="whiteSpace=wrap;html=1;" vertex="1" parent="1">
          <mxGeometry x="255" y="1028" width="120" height="30" as="geometry" />
        </mxCell>
        <mxCell id="uJvYWeS08IraSfvc5noM-55" style="edgeStyle=orthogonalEdgeStyle;rounded=0;orthogonalLoop=1;jettySize=auto;html=1;" edge="1" parent="1" source="uJvYWeS08IraSfvc5noM-56" target="uJvYWeS08IraSfvc5noM-71">
          <mxGeometry relative="1" as="geometry" />
        </mxCell>
        <mxCell id="uJvYWeS08IraSfvc5noM-56" value="NOT PAYABLE" style="whiteSpace=wrap;html=1;" vertex="1" parent="1">
          <mxGeometry x="396.5" y="1030" width="97.5" height="30" as="geometry" />
        </mxCell>
        <mxCell id="uJvYWeS08IraSfvc5noM-57" style="edgeStyle=orthogonalEdgeStyle;rounded=0;orthogonalLoop=1;jettySize=auto;html=1;entryX=0.994;entryY=0.365;entryDx=0;entryDy=0;entryPerimeter=0;" edge="1" parent="1" source="uJvYWeS08IraSfvc5noM-58" target="uJvYWeS08IraSfvc5noM-71">
          <mxGeometry relative="1" as="geometry">
            <Array as="points">
              <mxPoint x="580" y="1172" />
            </Array>
          </mxGeometry>
        </mxCell>
        <mxCell id="uJvYWeS08IraSfvc5noM-58" value="SYSTEM ERROR" style="whiteSpace=wrap;html=1;" vertex="1" parent="1">
          <mxGeometry x="540" y="1030" width="90" height="30" as="geometry" />
        </mxCell>
        <mxCell id="uJvYWeS08IraSfvc5noM-59" value="ICBC_MSG 102" style="text;html=1;strokeColor=none;fillColor=none;align=center;verticalAlign=middle;whiteSpace=wrap;rounded=0;" vertex="1" parent="1">
          <mxGeometry x="220" y="1058" width="96" height="30" as="geometry" />
        </mxCell>
        <mxCell id="uJvYWeS08IraSfvc5noM-60" value="ICBC_MSG 103" style="text;html=1;strokeColor=none;fillColor=none;align=center;verticalAlign=middle;whiteSpace=wrap;rounded=0;" vertex="1" parent="1">
          <mxGeometry x="345" y="1058" width="96" height="30" as="geometry" />
        </mxCell>
        <mxCell id="uJvYWeS08IraSfvc5noM-61" value="ICBC_MSG 201" style="text;html=1;strokeColor=none;fillColor=none;align=center;verticalAlign=middle;whiteSpace=wrap;rounded=0;" vertex="1" parent="1">
          <mxGeometry x="484" y="1058" width="96" height="30" as="geometry" />
        </mxCell>
        <mxCell id="uJvYWeS08IraSfvc5noM-62" value="YES" style="text;html=1;strokeColor=none;fillColor=none;align=center;verticalAlign=middle;whiteSpace=wrap;rounded=0;" vertex="1" parent="1">
          <mxGeometry x="336.5" y="700" width="60" height="30" as="geometry" />
        </mxCell>
        <mxCell id="uJvYWeS08IraSfvc5noM-63" value="ICBC_MSG 201" style="text;html=1;strokeColor=none;fillColor=none;align=center;verticalAlign=middle;whiteSpace=wrap;rounded=0;" vertex="1" parent="1">
          <mxGeometry x="594" y="638" width="96" height="30" as="geometry" />
        </mxCell>
        <mxCell id="uJvYWeS08IraSfvc5noM-64" value="ICBC_MSG 101" style="text;html=1;strokeColor=none;fillColor=none;align=center;verticalAlign=middle;whiteSpace=wrap;rounded=0;" vertex="1" parent="1">
          <mxGeometry x="-14" y="940" width="90" height="30" as="geometry" />
        </mxCell>
        <mxCell id="uJvYWeS08IraSfvc5noM-65" style="edgeStyle=orthogonalEdgeStyle;rounded=0;orthogonalLoop=1;jettySize=auto;html=1;" edge="1" parent="1" source="uJvYWeS08IraSfvc5noM-67" target="uJvYWeS08IraSfvc5noM-44">
          <mxGeometry relative="1" as="geometry" />
        </mxCell>
        <mxCell id="uJvYWeS08IraSfvc5noM-66" style="edgeStyle=orthogonalEdgeStyle;rounded=0;orthogonalLoop=1;jettySize=auto;html=1;" edge="1" parent="1" source="uJvYWeS08IraSfvc5noM-67" target="uJvYWeS08IraSfvc5noM-69">
          <mxGeometry relative="1" as="geometry">
            <Array as="points">
              <mxPoint x="679" y="865" />
            </Array>
          </mxGeometry>
        </mxCell>
        <mxCell id="uJvYWeS08IraSfvc5noM-67" value="is it an &lt;br&gt;individual &lt;br&gt;invoice &lt;br&gt;search?" style="rhombus;whiteSpace=wrap;html=1;" vertex="1" parent="1">
          <mxGeometry x="389.5" y="820" width="111" height="90" as="geometry" />
        </mxCell>
        <mxCell id="uJvYWeS08IraSfvc5noM-68" style="edgeStyle=orthogonalEdgeStyle;rounded=0;orthogonalLoop=1;jettySize=auto;html=1;entryX=1.006;entryY=0.706;entryDx=0;entryDy=0;entryPerimeter=0;" edge="1" parent="1" source="uJvYWeS08IraSfvc5noM-69" target="uJvYWeS08IraSfvc5noM-71">
          <mxGeometry relative="1" as="geometry">
            <Array as="points">
              <mxPoint x="680" y="1192" />
            </Array>
          </mxGeometry>
        </mxCell>
        <mxCell id="uJvYWeS08IraSfvc5noM-69" value="Individual Search Response" style="rounded=0;whiteSpace=wrap;html=1;" vertex="1" parent="1">
          <mxGeometry x="617.5" y="900" width="122.5" height="45" as="geometry" />
        </mxCell>
        <mxCell id="uJvYWeS08IraSfvc5noM-70" value="YES" style="text;html=1;strokeColor=none;fillColor=none;align=center;verticalAlign=middle;whiteSpace=wrap;rounded=0;" vertex="1" parent="1">
          <mxGeometry x="630" y="837" width="60" height="30" as="geometry" />
        </mxCell>
        <mxCell id="uJvYWeS08IraSfvc5noM-71" value="HTTP&lt;br&gt;RESPONSE&lt;br&gt;OK or CREATED" style="rounded=1;whiteSpace=wrap;html=1;" vertex="1" parent="1">
          <mxGeometry x="382.5" y="1150" width="125" height="60" as="geometry" />
        </mxCell>
        <mxCell id="uJvYWeS08IraSfvc5noM-72" value="HTTP&lt;br&gt;RESPONSE&lt;br&gt;BAD REQUEST" style="rounded=1;whiteSpace=wrap;html=1;" vertex="1" parent="1">
          <mxGeometry x="740" y="1150" width="125" height="60" as="geometry" />
        </mxCell>
        <mxCell id="uJvYWeS08IraSfvc5noM-73" value="HTTP&lt;br&gt;RESPONSE&lt;br&gt;SERVICE UNAVAILABLE" style="rounded=1;whiteSpace=wrap;html=1;" vertex="1" parent="1">
          <mxGeometry x="-175" y="1150" width="150" height="60" as="geometry" />
        </mxCell>
        <mxCell id="uJvYWeS08IraSfvc5noM-74" value="HTTP&lt;br&gt;RESPONSE&lt;br&gt;OK" style="rounded=1;whiteSpace=wrap;html=1;" vertex="1" parent="1">
          <mxGeometry x="34" y="1150" width="125" height="60" as="geometry" />
        </mxCell>
        <mxCell id="uJvYWeS08IraSfvc5noM-75" style="edgeStyle=orthogonalEdgeStyle;rounded=0;orthogonalLoop=1;jettySize=auto;html=1;" edge="1" parent="1" source="uJvYWeS08IraSfvc5noM-76" target="uJvYWeS08IraSfvc5noM-72">
          <mxGeometry relative="1" as="geometry" />
        </mxCell>
        <mxCell id="uJvYWeS08IraSfvc5noM-76" value="Update ICBC QT Interfaces to&lt;br style=&quot;border-color: var(--border-color);&quot;&gt;FAILED" style="rounded=0;whiteSpace=wrap;html=1;" vertex="1" parent="1">
          <mxGeometry x="590" y="578" width="120" height="60" as="geometry" />
        </mxCell>
        <mxCell id="uJvYWeS08IraSfvc5noM-77" value="200" style="text;html=1;strokeColor=none;fillColor=none;align=center;verticalAlign=middle;whiteSpace=wrap;rounded=0;" vertex="1" parent="1">
          <mxGeometry x="30" y="1120" width="60" height="30" as="geometry" />
        </mxCell>
      </root>
    </mxGraphModel>
  </diagram>
</mxfile>
